<svg width="117" height="184" viewBox="0 0 117 184" fill="none" xmlns="http://www.w3.org/2000/svg">
<path fill-rule="evenodd" clip-rule="evenodd" d="M58.5 183.5C58.5 183.5 117 97 117 58.5C117 26.1914 90.8087 2.93727e-05 58.5 2.79605e-05C26.1913 2.65482e-05 -9.17939e-07 21 -2.55712e-06 58.5C3.4331e-06 96 58.5 183.5 58.5 183.5ZM64.9839 89.904L73.6239 101.52L93.4959 101.52L78.7119 83.76C82.8719 80.624 86.1039 76.688 88.4079 71.952C90.7759 67.152 91.9599 61.872 91.9599 56.112C91.9599 49.52 90.4239 43.6 87.3519 38.352C84.3439 33.104 80.1839 29.008 74.8719 26.064C69.6239 23.12 63.8319 21.648 57.4959 21.648C51.1599 21.648 45.3359 23.12 40.0239 26.064C34.7759 29.008 30.5839 33.104 27.4479 38.352C24.3759 43.6 22.8399 49.52 22.8399 56.112C22.8399 62.704 24.3759 68.656 27.4479 73.968C30.5839 79.216 34.7759 83.312 40.0239 86.256C45.3359 89.2 51.1599 90.672 57.4959 90.672C59.9279 90.672 62.4239 90.416 64.9839 89.904ZM44.4399 70.416C41.2399 66.832 39.6399 62.064 39.6399 56.112C39.6399 50.096 41.2399 45.328 44.4399 41.808C47.7039 38.288 52.0559 36.528 57.4959 36.528C62.8719 36.528 67.1599 38.32 70.3599 41.904C73.6239 45.424 75.2559 50.16 75.2559 56.112C75.2559 62 73.6239 66.736 70.3599 70.32C67.1599 73.904 62.8719 75.696 57.4959 75.696C52.0559 75.696 47.7039 73.936 44.4399 70.416Z" fill="#747BFF"/>
</svg>
