<svg width="120" height="120" viewBox="0 0 120 120" fill="none" xmlns="http://www.w3.org/2000/svg">
<path fill-rule="evenodd" clip-rule="evenodd" d="M60 120C93.1371 120 120 93.1371 120 60C120 26.8629 93.1371 -1.28748e-05 60 -1.28748e-05C26.8629 -1.17005e-05 1.40846e-05 26.8629 1.26361e-05 60C1.8817e-05 93.1371 26.8629 120 60 120ZM40.6488 55.8532L53.6839 42.2191L54.8093 90.5363C54.8813 93.6278 57.4487 96.0702 60.5373 95.9985C63.6261 95.9267 66.0772 93.3676 66.0052 90.2761L64.8797 41.9593L78.5354 54.9737C80.772 57.1052 84.3147 57.0231 86.4499 54.7898C88.5867 52.5547 88.5041 49.0122 86.2657 46.8789L62.8326 24.5464C60.596 22.4148 57.0533 22.497 54.9182 24.7303L32.5502 48.1263C30.4133 50.3614 30.496 53.9039 32.7343 56.0371C34.9709 58.1687 38.5136 58.0865 40.6488 55.8532Z" fill="#B5B5B5"/>
</svg>
