<svg width="152" height="80" viewBox="0 0 152 80" fill="none" xmlns="http://www.w3.org/2000/svg">
<g opacity="0.5" filter="url(#filter0_f_38_25)">
<path fill-rule="evenodd" clip-rule="evenodd" d="M43.4604 67.6865C62.4887 68.7079 85.9839 67.643 106.61 60.9672C127.303 54.2698 140.771 38.6246 136.693 26.0228C132.614 13.4209 112.533 8.63432 91.8398 15.3317C71.2136 22.0075 51.5502 34.9112 36.7289 46.8883C29.4115 52.8015 23.4984 58.3071 19.4884 62.3857C18.6714 63.2166 17.9433 63.9782 17.3057 64.6632C18.2237 64.8446 19.26 65.0352 20.4089 65.2299C26.0483 66.1853 34.0659 67.1822 43.4604 67.6865ZM6.90782 68.0285C7.44077 69.6752 62.5536 80.4239 108.133 65.6718C133.092 57.5936 149.337 38.7226 144.418 23.5224C139.498 8.3222 115.276 2.54873 90.3171 10.627C44.7379 25.379 6.37487 66.3819 6.90782 68.0285Z" fill="black"/>
<path d="M60.4889 58.223C54.3024 60.2253 48.2987 58.7943 47.0793 55.0267C45.8599 51.2592 49.8865 46.5818 56.073 44.5794C62.2595 42.5771 68.2632 44.0082 69.4826 47.7757C70.702 51.5433 66.6754 56.2207 60.4889 58.223Z" fill="black"/>
<path d="M121.272 31.1159C122.575 35.1431 121.886 38.9212 119.205 42.4502C116.536 46.0168 112.05 48.8202 105.746 50.8605C99.9363 52.7407 95.0162 53.0442 90.9854 51.7708C87.0286 50.515 84.5378 48.6203 84.391 48.167L77.3469 50.1351L74.6061 41.6666L91.7575 35.8036L92.8539 39.191C93.7919 42.089 96.7104 42.2463 96.7104 42.2463C96.7104 42.2463 99.5296 42.5189 102.62 41.5187C104.783 40.8186 106.367 39.911 107.371 38.7958C108.376 37.6807 108.671 36.4833 108.257 35.2036C107.818 33.8486 106.828 33.0048 105.287 32.6721C103.807 32.3194 101.986 32.4931 99.8227 33.1932L96.8808 24.1038C100.626 22.8083 104.178 22.1786 107.535 22.2147C110.904 22.2884 113.783 23.0615 116.172 24.5338C118.634 26.0238 120.334 28.2178 121.272 31.1159Z" fill="black"/>
</g>
<defs>
<filter id="filter0_f_38_25" x="0.902336" y="0.975414" width="150.394" height="78.3739" filterUnits="userSpaceOnUse" color-interpolation-filters="sRGB">
<feFlood flood-opacity="0" result="BackgroundImageFix"/>
<feBlend mode="normal" in="SourceGraphic" in2="BackgroundImageFix" result="shape"/>
<feGaussianBlur stdDeviation="3" result="effect1_foregroundBlur_38_25"/>
</filter>
</defs>
</svg>
