<svg width="129" height="195" viewBox="0 0 129 195" fill="none" xmlns="http://www.w3.org/2000/svg">
<g filter="url(#filter0_d_80_10)">
<path fill-rule="evenodd" clip-rule="evenodd" d="M64.5 185.5C64.5 185.5 123 99 123 60.5C123 28.1913 96.8087 1.99998 64.5 1.99998C32.1913 1.99998 6.00001 23 6.00001 60.5C6.00001 98 64.5 185.5 64.5 185.5ZM66.9224 27.6986C66.3682 25.7675 63.6318 25.7675 63.0776 27.6986L55.7618 53.1904C55.5086 54.0727 54.6874 54.6694 53.77 54.6375L27.2651 53.7179C25.2573 53.6482 24.4117 56.2507 26.077 57.3745L48.0605 72.2097C48.8213 72.7231 49.135 73.6885 48.8213 74.5511L39.7562 99.4746C39.0695 101.363 41.2833 102.971 42.8667 101.735L63.7691 85.4113C64.4925 84.8464 65.5076 84.8464 66.231 85.4113L87.1333 101.735C88.7167 102.971 90.9306 101.363 90.2438 99.4746L81.1788 74.5511C80.865 73.6885 81.1787 72.7231 81.9395 72.2097L103.923 57.3745C105.588 56.2507 104.743 53.6482 102.735 53.7179L76.23 54.6375C75.3127 54.6694 74.4914 54.0727 74.2382 53.1904L66.9224 27.6986Z" fill="#FFD608"/>
</g>
<defs>
<filter id="filter0_d_80_10" x="0.500013" y="0.499985" width="128" height="194.5" filterUnits="userSpaceOnUse" color-interpolation-filters="sRGB">
<feFlood flood-opacity="0" result="BackgroundImageFix"/>
<feColorMatrix in="SourceAlpha" type="matrix" values="0 0 0 0 0 0 0 0 0 0 0 0 0 0 0 0 0 0 127 0" result="hardAlpha"/>
<feOffset dy="4"/>
<feGaussianBlur stdDeviation="2.75"/>
<feComposite in2="hardAlpha" operator="out"/>
<feColorMatrix type="matrix" values="0 0 0 0 0 0 0 0 0 0 0 0 0 0 0 0 0 0 0.5 0"/>
<feBlend mode="normal" in2="BackgroundImageFix" result="effect1_dropShadow_80_10"/>
<feBlend mode="normal" in="SourceGraphic" in2="effect1_dropShadow_80_10" result="shape"/>
</filter>
</defs>
</svg>
